# AST/ASF file generated using VICON BodyLanguage
# -----------------------------------------------
:version 1.10
:name VICON
:units
  mass 1.0
  length 0.45
  angle deg
:documentation
   .ast/.asf automatically generated from VICON data using
   VICON BodyBuilder and BodyLanguage model FoxedUp or BRILLIANT.MOD
:root
   order TX TY TZ RX RY RZ
   axis XYZ
   position 0 0 0  
   orientation 0 -0 0 
:bonedata
  begin
     id 1 
     name lhipjoint
     direction 0.515797 -0.759363 0.396637 
     length 2.47888 
     axis 0 -0 0  XYZ
  end
  begin
     id 2 
     name lfemur
     direction 0.34202 -0.939693 0  
     length 6.81885  
     axis 0 -0 20  XYZ
    dof rx ry rz
    limits (-160.0 20.0)
           (-70.0 70.0)
           (-60.0 70.0)
  end
  begin
     id 3 
     name ltibia
     direction 0.342037 -0.939687 0   
     length 7.89258   
     axis 0 -0 20   XYZ
    dof rx
    limits (-10.0 170.0)
  end
  begin
     id 4 
     name lfoot
     direction 0.173497 -0.476678 0.861787   
     length 2.51543   
     axis -90 -1.13533e-015 20   XYZ
    dof rx rz
    limits (-45.0 90.0)
           (-70.0 20.0)
  end
  begin
     id 5 
     name ltoes
     direction 1.53564e-011 -4.21897e-011 1   
     length 1.21388   
     axis -90 -1.13533e-015 20   XYZ
    dof rx
    limits (-90.0 20.0)
  end
  begin
     id 6 
     name rhipjoint
     direction -0.489454 -0.772941 0.403729   
     length 2.43534  
     axis 0 -0 0  XYZ 
  end
  begin
     id 7 
     name rfemur
     direction -0.34202 -0.939693 0   
     length 7.10357   
     axis 0 -0 -20   XYZ
    dof rx ry rz
    limits (-160.0 20.0)
           (-70.0 70.0)
           (-70.0 60.0)
  end
  begin
     id 8 
     name rtibia
     direction -0.34202 -0.939693 0   
     length 9.16127   
     axis 0 -0 -20   XYZ
    dof rx
    limits (-10.0 170.0)
 end
 begin
     id 9 
     name rfoot
     direction -0.270974 -0.748671 0.605033   
     length 1.74894  
     axis -90 1.13533e-015 -20   XYZ
    dof rx rz
    limits (-45.0 90.0)
           (-20.0 70.0)
  end
  begin
     id 10 
     name rtoes
     direction -1.53557e-011 -4.21759e-011 1   
     length 0.787585   
     axis -90 1.13533e-015 -20   XYZ
    dof rx
    limits (-90.0 20.0)
  end
  begin
     id 11 
     name lowerback
     direction -0.0140249 0.999561 0.0260968   
     length 2.16963   
     axis 0 -0 0   XYZ
    dof rx ry rz
    limits (-20.0 45.0)
           (-30.0 30.0)
           (-30.0 30.0)
  end
  begin
     id 12 
     name upperback
     direction 0.00860018 0.999959 -0.002711   
     length 2.1726   
     axis 0 -0 0   XYZ
    dof rx ry rz
    limits (-20.0 45.0)
           (-30.0 30.0)
           (-30.0 30.0)
  end
  begin
     id 13 
     name thorax
     direction 0.015211 0.999782 -0.0143191   
     length 2.17061   
     axis 0 -0 0   XYZ
    dof rx ry rz
    limits (-20.0 45.0)
           (-30.0 30.0)
           (-30.0 30.0)
  end
  begin
     id 14 
     name lowerneck
     direction -0.0140143 0.999447 0.030145   
     length 2.26749   
     axis 0 -0 0   XYZ
    dof rx ry rz
    limits (-20.0 45.0)
           (-30.0 30.0)
           (-30.0 30.0)
  end
  begin
     id 15 
     name upperneck
     direction 0.118062 0.961438 -0.248392   
     length 2.22728   
     axis 0 -0 0   XYZ
    dof rx ry rz
    limits (-20.0 45.0)
           (-30.0 30.0)
           (-30.0 30.0)
  end
  begin
     id 16
     name head
     direction 0.0431885 0.9954 -0.085514  
     length 2.28786  
     axis 0 -0 0   XYZ
    dof rx ry rz
    limits (-20.0 45.0)
           (-30.0 30.0)
           (-30.0 30.0)
  end
  begin
     id 17 
     name lclavicle
     direction 0.912126 0.409548 0.0172323  
     length 4.31571  
     axis 0 -0 0   XYZ
    dof ry rz
    limits (-20.0 10.0)
           (0.0 20.0)
  end
  begin
     id 18 
     name lhumerus
     direction 1 -4.48977e-011 1.93091e-027   
     length 5.13658   
     axis 180 -30 -90   XYZ
    dof rx ry rz
    limits (-60.0 90.0)
           (-90.0 90.0)
           (-90.0 90.0)
  end
  begin
     id 19
     name lradius
     direction 1 -4.48916e-011 6.84018e-027   
     length 3.22473   
     axis 180 -30 -90   XYZ
    dof rx
    limits (-10.0 170.0)
  end
  begin
     id 20
     name lwrist
     direction 1 -4.48987e-011 7.01981e-027   
     length 1.61236   
     axis -4.37994e-015 90 90   XYZ
    dof ry
    limits (-180.0 0.0)
 end
  begin
     id 21 
     name lhand
     direction 1 -4.49037e-011 1.40335e-026   
     length 0.936406   
     axis -8.96029e-015 90 90   XYZ
    dof rx rz
    limits (-90.0 90.0)
           (-45.0 45.0)
  end
  begin
     id 22 
     name lfingers
     direction 1 -4.48886e-011 2.8104e-026   
     length 0.754955   
     axis -1.79203e-014 90 90   XYZ
    dof rx
    limits (0.0 90.0)
  end
  begin
     id 23
     name lthumb
     direction 0.707107 -6.34937e-011 0.707107   
     length 1.08397   
     axis -90 45 -4.48555e-014   XYZ
    dof rx rz
    limits (-45.0 45.0)
           (-45.0 45.0)
  end
  begin
     id 24 
     name rclavicle
     direction -0.947962 0.317997 0.0156638   
     length 4.86918  
     axis 0 -0 0   XYZ 
    dof ry rz
    limits (-10.0 20.0)
           (-20.0 0.0)
  end
  begin
     id 25 
     name rhumerus
     direction -1 -4.48951e-011 2.80534e-018  
     length 5.60911   
     axis 180 30 90   XYZ
    dof rx ry rz
    limits (-90.0 60.0)
           (-90.0 90.0)
           (-90.0 90.0)
  end
  begin
     id 26 
     name rradius
     direction -1 -4.4898e-011 2.11315e-027   
     length 3.38704   
     axis 180 30 90   XYZ
    dof rx
    limits (-10.0 170.0)
  end
  begin
     id 27 
     name rwrist
     direction -1 -4.48933e-011 7.02314e-027   
     length 1.69352   
     axis -4.37994e-015 -90 -90   XYZ
    dof ry
    limits (-180.0 0.0)
  end
  begin
     id 28
     name rhand
     direction -1 -4.48937e-011 1.40458e-026   
     length 0.755878   
     axis -8.96029e-015 -90 -90   XYZ
    dof rx rz
    limits (-90.0 90.0)
           (-45.0 45.0)
  end
  begin
     id 29
     name rfingers
     direction -1 -4.4901e-011 2.80737e-026   
     length 0.609409   
     axis -1.79203e-014 -90 -90   XYZ
    dof rx
    limits (0.0 90.0)
  end
  begin
     id 30
     name rthumb
     direction -0.707107 -6.34968e-011 0.707107   
     length 0.874992   
     axis -90 -45 4.48555e-014   XYZ
    dof rx rz
    limits (-45.0 45.0)
           (-45.0 45.0)
  end
:hierarchy
  begin
    root lhipjoint rhipjoint lowerback
    lhipjoint lfemur
    lfemur ltibia
    ltibia lfoot
    lfoot ltoes
    rhipjoint rfemur
    rfemur rtibia
    rtibia rfoot
    rfoot rtoes
    lowerback upperback
    upperback thorax
    thorax lowerneck lclavicle rclavicle
    lowerneck upperneck
    upperneck head
    lclavicle lhumerus
    lhumerus lradius
    lradius lwrist
    lwrist lhand lthumb
    lhand lfingers
    rclavicle rhumerus
    rhumerus rradius
    rradius rwrist
    rwrist rhand rthumb
    rhand rfingers
  end

#!OML:ASF C:\ViconDB\ViconDB\414\Spring2016\041811\Spring2016.ASF
:FULLY-SPECIFIED
:DEGREES
62
root 9.72343 15.6507 8.44331 -162.132 -6.24535 -181.561
lowerback 24.6951 0.558458 -2.96929
upperback 2.94532 -0.689753 -0.0649619
thorax -10.4895 -0.45442 1.90917
lowerneck -13.436 -6.48531 -15.4225
upperneck -1.39555 -8.10904 23.0308
head 3.57516 -3.68903 9.24244
rclavicle -1.27719e-014 -8.24956e-015
rhumerus -21.5797 -8.01362 -85.6183
rradius 56.5331
rwrist 21.5825
rhand -47.0448 -15.103
rfingers 7.12502
rthumb -19.7504 -44.1196
lclavicle -1.27719e-014 -8.24956e-015
lhumerus -22.5094 -18.698 76.8161
lradius 53.8126
lwrist -7.94549
lhand -33.5496 13.9142
lfingers 7.12502
lthumb -6.74481 43.7867
rfemur -46.5267 -15.1393 22.2638
rtibia 70.1976
rfoot 7.25101 -14.8146
rtoes -4.93161
lfemur -50.5787 7.07716 -17.2625
ltibia 73.193
lfoot -38.2958 2.1155
ltoes -19.0107
63
root 9.71713 15.7287 8.26965 -162.543 -6.35068 -181.695
lowerback 24.0269 0.545981 -3.24949
upperback 2.79511 -0.711403 -0.0219774
thorax -10.2979 -0.43722 2.11389
lowerneck -13.3522 -6.49795 -15.5321
upperneck -1.10482 -8.14992 23.0682
head 3.66048 -3.69494 9.27268
rclavicle 1.83876e-015 5.2181e-015
rhumerus -20.2055 -4.19405 -84.6884
rradius 61.6295
rwrist 18.6821
rhand -46.4431 -14.9478
rfingers 7.12502
rthumb -19.1719 -44.0228
lclavicle 1.83876e-015 5.2181e-015
lhumerus -20.5721 -19.8952 75.0045
lradius 57.9341
lwrist -5.40732
lhand -34.0594 15.0967
lfingers 7.12502
lthumb -7.2369 44.953
rfemur -44.3574 -15.2176 21.8767
rtibia 68.6308
rfoot 7.25495 -14.8109
rtoes -4.3917
lfemur -48.4859 6.79995 -17.1654
ltibia 71.6964
lfoot -38.4067 2.07824
ltoes -19.1378
64
root 9.70977 15.8167 8.08097 -162.958 -6.55598 -181.779
lowerback 23.238 0.475215 -3.39213
upperback 2.62904 -0.765509 -0.0148626
thorax -10.0564 -0.440917 2.20702
lowerneck -13.0829 -6.46941 -15.4448
upperneck -0.865546 -8.15832 22.9237
head 3.67265 -3.69835 9.21039
rclavicle 2.08724e-015 -3.08116e-015
rhumerus -18.8281 -1.03672 -83.3907
rradius 66.5501
rwrist 16.8009
rhand -45.7569 -15.3016
rfingers 7.12502
rthumb -18.5119 -44.4407
lclavicle 2.08724e-015 -3.08116e-015
lhumerus -18.5306 -20.9462 72.7795
lradius 62.026
lwrist -2.84044
lhand -34.6539 16.3646
lfingers 7.12502
lthumb -7.81077 46.2004
rfemur -41.9853 -15.3818 21.559
rtibia 66.8049
rfoot 7.27862 -14.7192
rtoes -4.21377
lfemur -46.2431 6.45382 -17.0151
ltibia 69.9793
lfoot -38.4553 2.24606
ltoes -19.5484
65
root 9.70374 15.9123 7.88032 -163.385 -6.73929 -181.792
lowerback 22.3535 0.437341 -3.58948
upperback 2.43616 -0.770239 0.0796277
thorax -9.79097 -0.415686 2.41045
lowerneck -12.7494 -6.43115 -15.3837
upperneck -0.48228 -8.15331 22.6833
head 3.70763 -3.68908 9.12286
rclavicle 6.63444e-015 -1.54058e-015
rhumerus -17.3835 1.68278 -81.6927
rradius 71.19
rwrist 15.0307
rhand -44.7994 -14.6152
rfingers 7.12502
rthumb -17.5906 -43.8394
lclavicle 6.63444e-015 -1.54058e-015
lhumerus -16.4109 -21.4327 70.5897
lradius 65.847
lwrist -0.995346
lhand -34.7732 17.1642
lfingers 7.12502
lthumb -7.92586 46.9956
rfemur -39.4717 -15.5608 21.3188
rtibia 64.7682
rfoot 7.2299 -14.6679
rtoes -4.13266
lfemur -43.8769 6.21968 -16.7779
ltibia 68.1013
lfoot -38.4268 2.13784
ltoes -19.8086
66
root 9.69168 16.0252 7.65901 -163.845 -6.85755 -181.923
lowerback 21.3909 0.358559 -3.78764
upperback 2.19103 -0.832373 0.0531137
thorax -9.53531 -0.417897 2.49569
lowerneck -12.1881 -6.35335 -15.4963
upperneck -0.0293311 -8.13153 22.7022
head 3.7456 -3.67859 9.16402
rclavicle 2.62644e-014 -3.13086e-015
rhumerus -15.9529 3.98197 -79.896
rradius 75.4488
rwrist 13.8863
rhand -44.3844 -14.0209
rfingers 7.12502
rthumb -17.1912 -43.2804
lclavicle 2.62644e-014 -3.13086e-015
lhumerus -14.3101 -21.5042 68.2931
lradius 69.2776
lwrist 0.576969
lhand -34.9207 17.7255
lfingers 7.12502
lthumb -8.06828 47.5515
rfemur -36.6804 -15.8671 20.8784
rtibia 62.4546
rfoot 6.99103 -14.6268
rtoes -3.98564
lfemur -41.2149 5.95431 -16.697
ltibia 65.958
lfoot -38.3581 2.07859
ltoes -20.1986
67
root 9.67723 16.1267 7.42685 -164.199 -6.83662 -181.943
lowerback 20.1135 0.312611 -3.98225
upperback 1.92689 -0.818698 0.100577
thorax -9.12762 -0.383656 2.63192
lowerneck -11.6755 -6.30765 -15.6868
upperneck 0.626844 -8.14315 22.5989
head 3.85153 -3.67308 9.17366
rclavicle -1.59028e-015 -4.96962e-016
rhumerus -14.3554 5.88292 -77.7504
rradius 79.1797
rwrist 13.9693
rhand -43.7205 -13.6018
rfingers 7.12502
rthumb -16.5522 -42.9159
lclavicle -1.59028e-015 -4.96962e-016
lhumerus -12.1914 -21.54 65.8805
lradius 72.2698
lwrist 1.37216
lhand -35.3516 18.1256
lfingers 7.12502
lthumb -8.48413 47.9352
rfemur -33.9852 -16.0497 20.5481
rtibia 59.9952
rfoot 6.33556 -14.6706
rtoes -3.88049
lfemur -38.6375 5.77607 -16.5242
ltibia 63.7169
lfoot -38.1571 1.98629
ltoes -20.387
